<?xml version="1.0" encoding="UTF-8" standalone="no"?>
<!DOCTYPE svg PUBLIC "-//W3C//DTD SVG 1.1//EN" "http://www.w3.org/Graphics/SVG/1.1/DTD/svg11.dtd">
<svg width="279.9710006713867mm" height="107.29998779296875mm" viewBox="-119.91100311279297 -518.2999877929686 279.9710006713867 107.29998779296875" xmlns="http://www.w3.org/2000/svg" version="1.1">
	<title>svgOutput</title>
	<desc>made with tinkercad</desc>
<path d="M 149.71400451660156 -511.08200073242176 L 151.83399963378906 -508.2359924316405 L 152.0814208984375 -507.90399169921864 L 152.38099670410156 -507.50201416015614 L 154.12399291992188 -503.7349853515624 L 154.27499389648438 -503.407989501953 L 154.93699645996094 -501.4219970703124 L 154.99400329589844 -501.2499999999999 L 155.32699584960938 -500.042999267578 L 155.4180450439453 -499.71200561523426 L 155.48899841308594 -499.4540100097655 L 155.6479949951172 -498.78512573242176 L 155.81300354003906 -498.09100341796864 L 155.95899963378906 -497.407012939453 L 156.2449951171875 -495.94699096679676 L 156.55499267578125 -494.36199951171864 L 156.83999633789062 -492.56698608398426 L 156.8509979248047 -492.49398803710926 L 156.94400024414062 -491.85101318359364 L 156.95599365234375 -491.76901245117176 L 156.95645141601562 -491.764923095703 L 156.9834747314453 -491.51998901367176 L 157.63400268554688 -485.6249999999999 L 157.73500061035156 -484.5889892578124 L 158.08900451660156 -479.69699096679676 L 158.25599670410156 -475.46600341796864 L 158.26901245117188 -475.1359863281249 L 158.60299682617188 -466.6610107421874 L 158.82000732421875 -459.470001220703 L 158.83799743652344 -459.08099365234364 L 158.8533172607422 -458.75201416015614 L 159.05999755859375 -454.3129882812499 L 158.95899963378906 -450.88900756835926 L 158.9492950439453 -450.55999755859364 L 158.8209991455078 -446.21200561523426 L 158.80999755859375 -446.1210021972655 L 158.35299682617188 -443.3590087890624 L 158.25938415527344 -442.89288330078114 L 158.2570037841797 -442.8810119628905 L 158.21099853515625 -442.69601440429676 L 158.13038635253906 -442.36801147460926 L 157.5 -439.803009033203 L 157.45799255371094 -439.657989501953 L 157.072998046875 -438.4110107421874 L 156.26100158691406 -436.1629943847655 L 156.10299682617188 -435.76998901367176 L 155.35287475585938 -434.17599487304676 L 154.2310028076172 -431.7919921874999 L 154.15499877929688 -431.64498901367176 L 154.0442352294922 -431.4688720703124 L 153.9720001220703 -431.3540039062499 L 150.447998046875 -426.3120117187499 L 150.21926879882812 -425.9840087890624 L 149.91799926757812 -425.5520019531249 L 149.74899291992188 -425.34100341796864 L 149.4530029296875 -425.0589904785155 L 148.6479949951172 -424.34201049804676 L 147.45599365234375 -423.28024291992176 L 144.69400024414062 -420.82000732421864 L 144.57699584960938 -420.73300170898426 L 142.80299377441406 -419.55999755859364 L 142.45399475097656 -419.3380126953124 L 141.5189971923828 -418.74700927734364 L 140.45599365234375 -418.1099853515624 L 139.26400756835938 -417.3942871093749 L 139.08200073242188 -417.28500366210926 L 138.75900268554688 -417.0989990234374 L 138.4720001220703 -416.9379882812499 L 138.39300537109375 -416.89999389648426 L 136.36000061035156 -415.7969970703124 L 136.28700256347656 -415.75799560546864 L 136.2259979248047 -415.7239990234374 L 136.19700622558594 -415.7130126953124 L 136.18499755859375 -415.709991455078 L 135.31300354003906 -415.30499267578114 L 135.30599975585938 -415.30099487304676 L 135.30438232421875 -415.30099487304676 L 135.302001953125 -415.30099487304676 L 135.16799926757812 -415.25497436523426 L 134.97300720214844 -415.1879882812499 L 134.968994140625 -415.1870117187499 L 134.81700134277344 -415.16314697265614 L 134.8159942626953 -415.1629943847655 L 134.79400634765625 -415.15499877929676 L 134.6817169189453 -415.11517333984364 L 134.66259765625 -415.1083984374999 L 134.6219940185547 -415.0939941406249 L 134.50399780273438 -415.0520019531249 L 134.21400451660156 -414.92599487304676 L 133.80599975585938 -414.74798583984364 L 133.75283813476562 -414.72564697265614 L 133.64199829101562 -414.678985595703 L 132.26400756835938 -414.1940002441405 L 131.71299743652344 -413.9999999999999 L 131.7122802734375 -413.99981689453114 L 131.64599609375 -413.98300170898426 L 131.44183349609375 -413.9620666503905 L 131.42568969726562 -413.96041870117176 L 131.07200622558594 -413.92416381835926 L 127.44999694824219 -413.553009033203 L 127.18499755859375 -413.5419921874999 L 126.45700073242188 -413.52499389648426 L 124.0719985961914 -413.4849853515624 L 114.68800354003906 -413.3246154785155 L 99.49600219726562 -413.06500244140614 L 98.30400085449219 -413.04461669921864 L 92.53299713134766 -412.94601440429676 L 91.30500030517578 -412.93099975585926 L 91.08000183105469 -412.928985595703 L 88.1760025024414 -412.90301513671864 L 87.70449829101562 -412.89898681640614 L 84.79871368408203 -412.87432861328114 L 83.11299896240234 -412.8599853515624 L 81.91999816894531 -412.84967041015614 L 81.86375427246094 -412.84918212890614 L 78.73657989501953 -412.82208251953114 L 74.9209976196289 -412.78900146484364 L 66.72899627685547 -412.7189941406249 L 65.53600311279297 -412.7086181640624 L 60.40599822998047 -412.66400146484364 L 58.5369987487793 -412.647003173828 L 57.34400177001953 -412.6358947753905 L 49.152000427246094 -412.55953979492176 L 40.959999084472656 -412.48321533203114 L 33.96099853515625 -412.417999267578 L 33.63399887084961 -412.41500854492176 L 33.116065979003906 -412.41012573242176 L 32.768001556396484 -412.4068603515624 L 25.768999099731445 -412.34100341796864 L 17.57699966430664 -412.2650146484374 L 16.384000778198242 -412.25387573242176 L 11.248000144958496 -412.20599365234364 L 1.1929999589920044 -412.1359863281249 L 0 -412.1275634765624 L -6.999000072479248 -412.0780029296874 L -8.192000389099121 -412.06979370117176 L -10.196999549865723 -412.05599975585926 L -15.190999984741211 -412.04400634765614 L -16.384000778198242 -412.0410156249999 L -25.583999633789062 -412.01800537109364 L -31.575000762939453 -412.00299072265614 L -32.67599868774414 -411.9999999999999 L -32.75397491455078 -412.00006103515614 L -32.75873947143555 -412.00006103515614 L -32.768001556396484 -412.00006103515614 L -37.5359992980957 -412.00299072265614 L -44.448001861572266 -412.0069885253905 L -44.441001892089844 -412.001007080078 L -46.57094192504883 -412.00228881835926 L -47.72600173950195 -412.00299072265614 L -47.959999084472656 -412.00299072265614 L -49.152000427246094 -412.00360107421864 L -55.861000061035156 -412.0069885253905 L -56.150001525878906 -412.13400268554676 L -57.34400177001953 -412.6553955078124 L -58.479000091552734 -413.1510009765624 L -58.83399963378906 -413.3070068359374 L -62.34400177001953 -414.64801025390614 L -62.52000045776367 -414.70700073242176 L -62.70217514038086 -414.7296447753905 L -62.70500183105469 -414.730010986328 L -64.34300231933594 -414.813995361328 L -65.53600311279297 -414.87533569335926 L -70.66500091552734 -415.13900756835926 L -71.1709976196289 -415.1520080566405 L -72.53500366210938 -415.15301513671864 L -80.72699737548828 -415.15499877929676 L -98.30400085449219 -415.15887451171864 L -107.93699645996094 -415.1610107421874 L -108.98200225830078 -415.7659912109374 L -113.49500274658203 -418.8290100097655 L -113.5250015258789 -418.8489990234374 L -113.52810668945312 -418.8514709472655 L -117.62200164794922 -422.105987548828 L -117.64399719238281 -422.12899780273426 L -118.3010025024414 -422.9119873046874 L -118.33399963378906 -422.95700073242176 L -118.67900085449219 -423.7080078124999 L -118.69000244140625 -423.751007080078 L -118.90299987792969 -424.938995361328 L -118.91100311279297 -424.9999999999999 L -118.90350341796875 -425.9840087890624 L -118.9010009765625 -426.3120117187499 L -118.88899993896484 -427.77899169921864 L -118.625 -433.5150146484374 L -118.0510025024414 -445.9790039062499 L -117.91500091552734 -448.95199584960926 L -117.89399719238281 -449.3900146484374 L -117.89292907714844 -449.411407470703 L -117.42546844482422 -458.75201416015614 L -117.40899658203125 -459.08099365234364 L -116.60453796386719 -475.1359863281249 L -116.58799743652344 -475.46600341796864 L -116.48500061035156 -477.5570068359374 L -116.44999694824219 -478.2560119628905 L -116.4260025024414 -478.60800170898426 L -116.4219970703125 -478.64401245117176 L -116.33872985839844 -479.23199462890614 L -116.29199981689453 -479.5620117187499 L -116.03600311279297 -481.35800170898426 L -116.02300262451172 -481.39999389648426 L -115.77100372314453 -482.12200927734364 L -115.76300048828125 -482.14401245117176 L -115.75800323486328 -482.14999389648426 L -115.75 -482.16400146484364 L -115.51300048828125 -482.51901245117176 L -115.50779724121094 -482.52523803710926 L -115.50299835205078 -482.5310058593749 L -115.48699951171875 -482.54501342773426 L -115.46299743652344 -482.56500244140614 L -115.267822265625 -482.73822021484364 L -114.68800354003906 -483.25277709960926 L -114.68099975585938 -483.25900268554676 L -114.58961486816406 -483.33773803710926 L -114.58699798583984 -483.3399963378905 L -114.18399810791016 -483.657989501953 L -113.68840026855469 -484.04928588867176 L -113.49500274658203 -484.20199584960926 L -113.46199798583984 -484.22799682617176 L -113.43299865722656 -484.24700927734364 L -112.49299621582031 -484.647003173828 L -112.48899841308594 -484.64898681640614 L -112.43699645996094 -484.65899658203114 L -111.03199768066406 -484.8640136718749 L -110.96499633789062 -484.86898803710926 L -109.8290023803711 -484.8699951171874 L -109.55599975585938 -484.84698486328114 L -99.79000091552734 -483.68600463867176 L -99.21600341796875 -483.60800170898426 L -98.30400085449219 -483.475860595703 L -97.11100006103516 -483.303009033203 L -90.55999755859375 -482.35101318359364 L -88.2979965209961 -481.74798583984364 L -86.97599792480469 -481.10101318359364 L -86.00599670410156 -480.28900146484364 L -85.21299743652344 -479.20700073242176 L -84.10700225830078 -476.5889892578124 L -84.02300262451172 -476.28399658203114 L -83.81099700927734 -475.46600341796864 L -81.58200073242188 -466.8389892578124 L -81.4540023803711 -466.32501220703114 L -79.58200073242188 -459.08099365234364 L -79.49691009521484 -458.75201416015614 L -77.70099639892578 -451.8080139160155 L -75.4229965209961 -445.3919982910155 L -74.55599975585938 -443.2760009765624 L -74.29100036621094 -442.69601440429676 L -73.13200378417969 -440.17498779296864 L -72.8280029296875 -439.52499389648426 L -72.48999786376953 -438.8590087890624 L -71.6760025024414 -437.3599853515624 L -71.60800170898438 -437.24301147460926 L -69.65799713134766 -434.50399780273426 L -68.35399627685547 -432.67401123046864 L -67.6989974975586 -432.0060119628905 L -65.76499938964844 -430.4580078124999 L -65.53600311279297 -430.369415283203 L -64.3740005493164 -429.92001342773426 L -64.34300231933594 -429.91500854492176 L -61.61800003051758 -429.5260009765624 L -54.09834671020508 -429.29522705078114 L -53.96099853515625 -429.29098510742176 L -53.94118118286133 -429.2904052734374 L -53.584999084472656 -429.27999877929676 L -52.132999420166016 -429.2569885253905 L -49.79199981689453 -429.220001220703 L -49.7869987487793 -429.2250061035155 L -48.00899887084961 -429.19699096679676 L -47.823001861572266 -429.1940002441405 L -45.01300048828125 -429.14999389648426 L -45.01300048828125 -429.1486816406249 L -45.01300048828125 -427.0480041503905 L -45.016998291015625 -427.0480041503905 L -46.08061981201172 -425.9840087890624 L -47.823001861572266 -424.240997314453 L -45.016998291015625 -421.4330139160155 L -32.768001556396484 -421.4330139160155 L -29.075000762939453 -421.4330139160155 L -26.268999099731445 -424.240997314453 L -28.01137924194336 -425.9840087890624 L -29.075000762939453 -427.0480041503905 L -29.07900047302246 -427.0480041503905 L -29.07900047302246 -427.0520019531249 L -29.07900047302246 -429.27398681640614 L -26.268999099731445 -429.2560119628905 L -25.958999633789062 -429.25399780273426 L -25.867000579833984 -429.25299072265614 L -25.509668350219727 -429.2510986328124 L -25.490999221801758 -429.251007080078 L -25.476999282836914 -429.251007080078 L -23.384000778198242 -429.2810058593749 L -22.601999282836914 -429.2919921874999 L -22.5049991607666 -429.2969970703124 L -21.108999252319336 -429.6310119628905 L -19.6200008392334 -430.34698486328114 L -19.077999114990234 -430.6979980468749 L -16.384000778198242 -432.4508056640624 L -15.190999984741211 -433.22698974609364 L -13.731457710266113 -434.17599487304676 L -13.22700023651123 -434.50399780273426 L -10.980999946594238 -435.96600341796864 L -9.920999526977539 -436.6409912109374 L -9.005999565124512 -437.2250061035155 L -8.854777336120605 -437.3199768066405 L -8.204999923706055 -437.72799682617176 L -5.197000026702881 -439.59100341796864 L -0.5454131960868835 -442.36801147460926 L 0 -442.6936035156249 L 0.004000000189989805 -442.69601440429676 L 0.5400000214576721 -443.0169982910155 L 0.5955697298049927 -443.04916381835926 L 1.1929999589920044 -443.39498901367176 L 5.260000228881836 -445.74700927734364 L 6.36299991607666 -446.38400268554676 L 11.020999908447266 -449.0270080566405 L 12.121000289916992 -449.6879882812499 L 12.78600025177002 -450.095001220703 L 16.384000778198242 -452.3006591796874 L 17.57699966430664 -453.032012939453 L 26.910179138183594 -458.75201416015614 L 27.44700050354004 -459.08099365234364 L 27.61199951171875 -459.1820068359374 L 27.854999542236328 -459.3439941406249 L 32.768001556396484 -463.09030151367176 L 33.96099853515625 -463.9999999999999 L 37.61827087402344 -466.7886962890624 L 37.619998931884766 -466.79000854492176 L 38.12799835205078 -467.27398681640614 L 42.17900085449219 -471.1310119628905 L 42.724998474121094 -471.67498779296864 L 44.45899963378906 -473.59799194335926 L 44.749000549316406 -473.980987548828 L 45.567222595214844 -475.1359863281249 L 45.80099868774414 -475.46600341796864 L 49.152000427246094 -480.19992065429676 L 49.63199996948242 -480.87799072265614 L 49.76499938964844 -481.09298706054676 L 50.345001220703125 -482.3710021972655 L 50.77925491333008 -483.3280029296874 L 50.92900085449219 -483.657989501953 L 53.26900100708008 -488.81500244140614 L 54.11008071899414 -491.51998901367176 L 54.2130012512207 -491.85101318359364 L 54.43899917602539 -492.5780029296874 L 55.367000579833984 -496.178985595703 L 55.664329528808594 -497.7154541015624 L 55.94317626953125 -499.1564025878905 L 55.94599914550781 -499.17098999023426 L 56.07500076293945 -500.042999267578 L 56.340999603271484 -501.83200073242176 L 56.64500045776367 -504.39898681640614 L 57.15928649902344 -507.90399169921864 L 57.20800018310547 -508.2359924316405 L 57.2400016784668 -508.4549865722655 L 57.24022674560547 -508.45562744140614 L 57.904998779296875 -510.3080139160155 L 58.5369987487793 -511.2600097656249 L 58.645999908447266 -511.42498779296864 L 58.647342681884766 -511.42620849609364 L 59.6510009765625 -512.3319702148436 L 59.73699951171875 -512.4089965820311 L 61.54100036621094 -513.3460083007811 L 61.55500030517578 -513.3510131835936 L 61.641998291015625 -513.3800048828124 L 65.53600311279297 -514.3409423828124 L 65.74299621582031 -514.3920288085936 L 65.91300201416016 -514.4310302734374 L 65.99700164794922 -514.4459838867186 L 66.24500274658203 -514.4780273437499 L 66.72899627685547 -514.5260009765624 L 73.72799682617188 -515.2136230468749 L 74.58699798583984 -515.2979736328124 L 74.9209976196289 -515.3220214843749 L 75.40499877929688 -515.3569946289061 L 75.421875 -515.3579711914061 L 79.01499938964844 -515.5689697265624 L 81.91999816894531 -515.7150268554686 L 83.11299896240234 -515.7750244140624 L 92.02899932861328 -516.2239990234374 L 93.12699890136719 -516.2789916992186 L 97.93800354003906 -516.5659790039061 L 98.30400085449219 -516.5819702148436 L 99.49600219726562 -516.6339721679686 L 101.41799926757812 -516.7189941406249 L 101.45814514160156 -516.7196655273436 L 110.58899688720703 -516.8649902343749 L 114.45700073242188 -517.0369873046874 L 114.68800354003906 -517.0411987304686 L 115.87999725341797 -517.0629882812499 L 122.87999725341797 -517.1903076171874 L 123.93570709228516 -517.2095336914061 L 124.0719985961914 -517.2119750976561 L 128.57000732421875 -517.2940063476561 L 128.89999389648438 -517.2999877929686 L 128.90310668945312 -517.2998657226561 L 131.07200622558594 -517.2094726562499 L 131.66000366210938 -517.1849975585936 L 132.26400756835938 -517.1439819335936 L 134.35299682617188 -517.0040283203124 L 134.626708984375 -516.9836425781249 L 135.10499572753906 -516.9479980468749 L 137.76300048828125 -516.6779785156249 L 139.03399658203125 -516.4990234374999 L 139.0959930419922 -516.4899902343749 L 139.24600219726562 -516.4609985351561 L 139.26400756835938 -516.4569091796874 L 140.45599365234375 -516.1870117187499 L 140.8579864501953 -516.0960083007811 L 141.87399291992188 -515.8660278320311 L 141.95199584960938 -515.8439941406249 L 146.6009979248047 -513.6290283203124 L 146.6179962158203 -513.6179809570311 L 146.73699951171875 -513.5300292968749 L 147.45599365234375 -512.9416503906249 L 148.2010040283203 -512.3319702148436 L 148.6479949951172 -511.96600341796864 L 149.6009979248047 -511.18600463867176 L 149.71047973632812 -511.085479736328 L 149.71099853515625 -511.084991455078 L 149.71400451660156 -511.08200073242176 M 138.64300537109375 -475.46600341796864 L 138.6595916748047 -475.1359863281249 L 138.8489990234375 -471.3699951171874 L 138.8656768798828 -471.04000854492176 L 139.05599975585938 -467.27398681640614 L 139.0726318359375 -466.9440002441405 L 139.468994140625 -459.08099365234364 L 139.48544311523438 -458.75201416015614 L 139.5260009765625 -457.94000244140614 L 139.55799865722656 -457.5109863281249 L 139.6269989013672 -457.0520019531249 L 140.42999267578125 -451.917999267578 L 140.43516540527344 -451.8990783691405 L 140.43600463867188 -451.8959960937499 L 140.82699584960938 -450.88900756835926 L 140.9546356201172 -450.55999755859364 L 141.052001953125 -450.3089904785155 L 141.07400512695312 -450.27398681640614 L 141.5030059814453 -449.6610107421874 L 141.51898193359375 -449.64144897460926 L 141.52099609375 -449.63900756835926 L 141.56399536132812 -449.60198974609364 L 142.01800537109375 -449.2040100097655 L 142.6060028076172 -448.8919982910155 L 142.86099243164062 -448.7980041503905 L 142.90199279785156 -448.78500366210926 L 143.36000061035156 -448.70138549804676 L 143.50999450683594 -448.67401123046864 L 143.5500030517578 -448.667999267578 L 144.552001953125 -448.70098876953114 L 145.3730010986328 -448.7290039062499 L 146.66299438476562 -448.99301147460926 L 146.7100067138672 -449.0109863281249 L 147.3679962158203 -449.28500366210926 L 147.4010009765625 -449.30599975585926 L 147.45599365234375 -449.350372314453 L 147.80999755859375 -449.6359863281249 L 147.8300018310547 -449.65399169921864 L 148.33599853515625 -450.32101440429676 L 148.4390869140625 -450.55999755859364 L 148.58099365234375 -450.88900756835926 L 148.6479949951172 -451.04501342773426 L 148.96499633789062 -451.77999877929676 L 149.0229949951172 -452.053985595703 L 149.93099975585938 -457.6419982910155 L 149.95899963378906 -457.8919982910155 L 149.98300170898438 -458.31600952148426 L 149.99269104003906 -458.75201416015614 L 150 -459.08099365234364 L 150.35699462890625 -474.7340087890624 L 150.36083984375 -475.1359863281249 L 150.36399841308594 -475.46600341796864 L 150.3679962158203 -475.85101318359364 L 150.34300231933594 -478.9370117187499 L 150.26300048828125 -484.4840087890624 L 150.25399780273438 -485.0629882812499 L 149.99400329589844 -491.17098999023426 L 149.97694396972656 -491.51998901367176 L 149.96600341796875 -491.74398803710926 L 149.95700073242188 -491.85101318359364 L 149.91299438476562 -492.3640136718749 L 149.31500244140625 -495.94699096679676 L 149.23699951171875 -496.41000366210926 L 148.66000366210938 -497.8120117187499 L 148.6479949951172 -497.8290100097655 L 148.1269989013672 -498.54501342773426 L 147.54400634765625 -499.0419921874999 L 147.45599365234375 -499.0873107910155 L 146.80999755859375 -499.42001342773426 L 145.6331024169922 -499.71200561523426 L 145.35499572753906 -499.7810058593749 L 144.552001953125 -499.876007080078 L 144.44500732421875 -499.88800048828114 L 142.4340057373047 -499.91400146484364 L 141.45046997070312 -499.71200561523426 L 141.43099975585938 -499.7080078124999 L 141.38900756835938 -499.69100952148426 L 140.6929931640625 -499.3609924316405 L 140.6699981689453 -499.34799194335926 L 140.45599365234375 -499.17001342773426 L 140.10499572753906 -498.87701416015614 L 139.60499572753906 -498.209014892578 L 139.26400756835938 -497.4177246093749 L 139.03399658203125 -496.88400268554676 L 138.96200561523438 -496.63900756835926 L 138.82899475097656 -495.94699096679676 L 138.765625 -495.615997314453 L 138.59100341796875 -494.7040100097655 L 138.54830932617188 -494.458770751953 L 138.5399932861328 -494.4110107421874 L 138.43800354003906 -493.470001220703 L 138.33099365234375 -491.85101318359364 L 138.3300018310547 -491.8389892578124 L 138.3218231201172 -491.51998901367176 L 138.31500244140625 -491.25399780273426 L 138.28199768066406 -485.14300537109364 L 138.29100036621094 -484.7250061035155 L 138.4290008544922 -479.9790039062499 L 138.4340057373047 -479.80999755859364 L 138.4982452392578 -478.34429931640614 L 138.49899291992188 -478.32699584960926 L 138.64300537109375 -475.46600341796864 M 132.46400451660156 -440.5069885253905 L 132.46499633789062 -440.48800659179676 L 132.52906799316406 -440.32000732421864 L 132.55499267578125 -440.25201416015614 L 132.6909942626953 -440.0580139160155 L 132.8699951171875 -439.9020080566405 L 133.0919952392578 -439.7860107421874 L 133.2220001220703 -439.7460021972655 L 133.4980010986328 -439.71200561523426 L 133.75 -439.7399902343749 L 134.031005859375 -439.84100341796864 L 134.29100036621094 -440.01800537109364 L 134.35400390625 -440.07699584960926 L 134.52499389648438 -440.292999267578 L 134.53756713867188 -440.32000732421864 L 134.62600708007812 -440.5100097656249 L 134.6540069580078 -440.64801025390614 L 134.67100524902344 -440.73699951171864 L 134.65899658203125 -440.9630126953124 L 134.59500122070312 -441.1730041503905 L 134.4770050048828 -441.3699951171874 L 134.30799865722656 -441.54000854492176 L 134.0919952392578 -441.66900634765614 L 133.83299255371094 -441.74700927734364 L 133.61099243164062 -441.7659912109374 L 133.20599365234375 -441.7239990234374 L 133.1199951171875 -441.69390869140614 L 132.9459991455078 -441.63299560546864 L 132.7259979248047 -441.48300170898426 L 132.5659942626953 -441.28500366210926 L 132.48199462890625 -441.0880126953124 L 132.44480895996094 -440.87155151367176 L 132.4429931640625 -440.8609924316405 L 132.44017028808594 -440.843048095703 L 132.44000244140625 -440.84201049804676 L 132.45399475097656 -440.64801025390614 L 132.46400451660156 -440.5069885253905 M 127.76000213623047 -500.042999267578 L 127.74199676513672 -499.82501220703114 L 127.76083374023438 -499.71200561523426 L 127.77899932861328 -499.60299682617176 L 127.86399841308594 -499.407989501953 L 128 -499.2250061035155 L 128.16700744628906 -499.084014892578 L 128.1909942626953 -499.063995361328 L 128.4510040283203 -498.9339904785155 L 128.7480010986328 -498.86700439453114 L 129.0570068359375 -498.87399291992176 L 129.36900329589844 -498.9630126953124 L 129.6580047607422 -499.13400268554676 L 129.98399353027344 -499.4540100097655 L 130.0919952392578 -499.62298583984364 L 130.1213836669922 -499.71200561523426 L 130.12600708007812 -499.72601318359364 L 130.1280059814453 -499.73699951171864 L 130.1199951171875 -499.94000244140614 L 130.11917114257812 -499.94830322265614 L 130.11900329589844 -499.95001220703114 L 130.07899475097656 -500.042999267578 L 130.05099487304688 -500.1090087890624 L 129.78399658203125 -500.459991455078 L 129.5399932861328 -500.667999267578 L 129.26800537109375 -500.803985595703 L 129.0240020751953 -500.860626220703 L 128.96200561523438 -500.8749999999999 L 128.64300537109375 -500.8710021972655 L 128.3780059814453 -500.8020019531249 L 128.1479949951172 -500.678009033203 L 127.98400115966797 -500.52801513671864 L 127.85299682617188 -500.3290100097655 L 127.760986328125 -500.0549316406249 L 127.76000213623047 -500.0520019531249 L 127.76000213623047 -500.042999267578 M 99.49600219726562 -511.32199096679676 L 98.30400085449219 -511.28170776367176 L 86.80599975585938 -510.89300537109364 L 85.2509994506836 -510.82699584960926 L 84.98899841308594 -510.8129882812499 L 83.11299896240234 -510.69000244140614 L 83.04000091552734 -510.68499755859364 L 82.50299835205078 -510.63400268554676 L 82.21199798583984 -510.59298706054676 L 81.91999816894531 -510.54339599609364 L 80.14600372314453 -510.24200439453114 L 80.09300231933594 -510.2239990234374 L 79.15399932861328 -509.8489990234374 L 79.12385559082031 -509.8348693847655 L 79.12200164794922 -509.834014892578 L 79.01699829101562 -509.7560119628905 L 78.76499938964844 -509.57000732421864 L 78.73200225830078 -509.54598999023426 L 78.73123168945312 -509.5450744628905 L 78.49099731445312 -509.2560119628905 L 78.47000122070312 -509.230010986328 L 78.2979965209961 -508.86801147460926 L 78.19300079345703 -508.33599853515614 L 78.19300079345703 -508.28500366210926 L 78.19599914550781 -508.2359924316405 L 78.21794128417969 -507.90399169921864 L 78.2490005493164 -507.4339904785155 L 78.25399780273438 -507.407012939453 L 78.43699645996094 -506.92098999023426 L 78.75800323486328 -506.4549865722655 L 78.98821258544922 -506.2227783203124 L 78.98899841308594 -506.22198486328114 L 79.01699829101562 -506.2030029296874 L 79.78199768066406 -505.6770019531249 L 81.6259994506836 -504.9750061035155 L 81.91999816894531 -504.9052734374999 L 82.84725189208984 -504.68539428710926 L 82.87000274658203 -504.67999267578114 L 83.11299896240234 -504.63800048828114 L 83.2699966430664 -504.6099853515624 L 85.20899963378906 -504.2860107421874 L 88.58599853515625 -503.91900634765614 L 88.78099822998047 -503.89898681640614 L 90.56099700927734 -503.75799560546864 L 91.04100036621094 -503.74899291992176 L 98.30400085449219 -503.67425537109364 L 99.49600219726562 -503.6619873046874 L 100.63099670410156 -503.64999389648426 L 101.01799774169922 -503.64999389648426 L 114.02899932861328 -503.8389892578124 L 114.68800354003906 -503.8847656249999 L 114.82099914550781 -503.89401245117176 L 115.87999725341797 -503.97100830078114 L 122.87999725341797 -504.48370361328114 L 124.0719985961914 -504.57101440429676 L 124.08300018310547 -504.57101440429676 L 124.12999725341797 -504.5780029296874 L 126.08699798583984 -504.9999999999999 L 127.1500015258789 -505.4020080566405 L 127.75900268554688 -505.77899169921864 L 128.13507080078125 -506.16000366210926 L 128.13900756835938 -506.16400146484364 L 128.16700744628906 -506.2139892578124 L 128.34800720214844 -506.51998901367176 L 128.4709930419922 -506.9330139160155 L 128.4969940185547 -507.5209960937499 L 128.46499633789062 -507.8089904785155 L 128.45700073242188 -507.855010986328 L 128.44491577148438 -507.90399169921864 L 128.36300659179688 -508.2359924316405 L 128.2050018310547 -508.8900146484374 L 128.1927947998047 -508.93185424804676 L 128.1909942626953 -508.9379882812499 L 128.16700744628906 -508.98199462890614 L 127.89700317382812 -509.5069885253905 L 127.4990005493164 -509.9649963378905 L 126.86699676513672 -510.407989501953 L 125.572998046875 -510.907012939453 L 125.5469970703125 -510.9129943847655 L 125.44200134277344 -510.9330139160155 L 124.0719985961914 -511.09799194335926 L 122.87999725341797 -511.24114990234364 L 120.44999694824219 -511.532989501953 L 120.2249984741211 -511.55499267578114 L 120.12899780273438 -511.56100463867176 L 119.27899932861328 -511.563995361328 L 115.87999725341797 -511.532012939453 L 114.68800354003906 -511.5206298828124 L 101.94300079345703 -511.39898681640614 L 101.29303741455078 -511.38275146484364 L 101.2229995727539 -511.3810119628905 L 99.49600219726562 -511.32199096679676 M 106.3239974975586 -493.89898681640614 L 106.30999755859375 -493.99301147460926 L 106.24199676513672 -494.15301513671864 L 106.05999755859375 -494.3749999999999 L 105.7760009765625 -494.5790100097655 L 105.50599670410156 -494.688995361328 L 105.24400329589844 -494.72601318359364 L 105.22599792480469 -494.72799682617176 L 104.9729995727539 -494.699005126953 L 104.95600128173828 -494.69699096679676 L 104.71900177001953 -494.60699462890614 L 104.5199966430664 -494.4689941406249 L 104.447998046875 -494.3857421874999 L 104.36000061035156 -494.28399658203114 L 104.26699829101562 -494.0989990234374 L 104.22100067138672 -493.9060058593749 L 104.22200012207031 -493.89898681640614 L 104.2239990234375 -493.69500732421864 L 104.25763702392578 -493.5679931640624 L 104.28199768066406 -493.47601318359364 L 104.40399932861328 -493.24899291992176 L 104.572998046875 -493.04901123046864 L 104.822998046875 -492.84100341796864 L 105.0009994506836 -492.7499999999999 L 105.14600372314453 -492.7139892578124 L 105.16000366210938 -492.71200561523426 L 105.45600128173828 -492.74798583984364 L 105.47100067138672 -492.751007080078 L 105.70800018310547 -492.87298583984364 L 105.84700012207031 -492.97601318359364 L 106.11799621582031 -493.2449951171874 L 106.25599670410156 -493.46701049804676 L 106.29037475585938 -493.5679931640624 L 106.32099914550781 -493.657989501953 L 106.33596801757812 -493.818634033203 L 106.33599853515625 -493.8190002441405 L 106.3239974975586 -493.89898681640614 M 127.12200164794922 -479.2609863281249 L 127.0739974975586 -479.85699462890614 L 126.750732421875 -483.3280029296874 L 126.72000122070312 -483.657989501953 L 126.5739974975586 -485.22198486328114 L 126.5530014038086 -485.3959960937499 L 126.0530014038086 -487.4270019531249 L 125.59300231933594 -488.34201049804676 L 125.05899810791016 -488.9790039062499 L 124.33553314208984 -489.50189208984364 L 124.33399963378906 -489.50299072265614 L 124.0719985961914 -489.62799072265614 L 123.90899658203125 -489.70599365234364 L 123.86399841308594 -489.72698974609364 L 123.80400085449219 -489.74700927734364 L 122.87999725341797 -489.98971557617176 L 122.3270034790039 -490.1350097656249 L 122.24500274658203 -490.15301513671864 L 122.00888061523438 -490.16632080078114 L 121.94400024414062 -490.17001342773426 L 115.87999725341797 -490.2399902343749 L 115.46399688720703 -490.2449951171874 L 115.12899780273438 -490.2349853515624 L 114.68800354003906 -490.208282470703 L 107.88500213623047 -489.79598999023426 L 106.177001953125 -489.688995361328 L 99.49600219726562 -489.2040100097655 L 98.30400085449219 -489.11727905273426 L 91.30500030517578 -488.60800170898426 L 91.01300048828125 -488.58700561523426 L 90.52300262451172 -488.542999267578 L 88.56700134277344 -488.09100341796864 L 87.96800231933594 -487.7609863281249 L 87.96099853515625 -487.7550048828124 L 87.9280014038086 -487.72601318359364 L 87.08599853515625 -486.9330139160155 L 87.00700378417969 -486.85198974609364 L 86.33100128173828 -486.084991455078 L 86.3010025024414 -486.0480041503905 L 85.88700103759766 -485.25299072265614 L 85.58100128173828 -483.855987548828 L 85.57599639892578 -483.8080139160155 L 85.57499694824219 -483.657989501953 L 85.57392120361328 -483.3280029296874 L 85.55599975585938 -477.845001220703 L 85.55899810791016 -477.3089904785155 L 85.6520004272461 -475.46600341796864 L 85.66883087158203 -475.1359863281249 L 86.10099792480469 -466.6610107421874 L 86.15699768066406 -465.67999267578114 L 86.61199951171875 -459.08099365234364 L 86.63472747802734 -458.75201416015614 L 87.15399932861328 -451.2359924316405 L 87.18699645996094 -450.88900756835926 L 87.19599914550781 -450.79998779296864 L 87.20899963378906 -450.74200439453114 L 87.51200103759766 -449.39898681640614 L 87.80000305175781 -448.75399780273426 L 88.11499786376953 -448.355010986328 L 88.66999816894531 -447.9320068359374 L 89.06999969482422 -447.6839904785155 L 89.18499755859375 -447.615997314453 L 90.49700164794922 -446.9479980468749 L 90.5510025024414 -446.92599487304676 L 91.30500030517578 -446.7969970703124 L 92.30400085449219 -446.62701416015614 L 95.88600158691406 -446.6359863281249 L 98.30400085449219 -446.7679443359374 L 99.49600219726562 -446.8330078124999 L 106.49600219726562 -447.217071533203 L 106.51300048828125 -447.21798706054676 L 107.40899658203125 -447.27301025390614 L 107.68800354003906 -447.29098510742176 L 114.68800354003906 -447.74386596679676 L 115.87999725341797 -447.82101440429676 L 121.56199645996094 -448.188995361328 L 122.05500030517578 -448.2239990234374 L 124.0719985961914 -448.501007080078 L 124.95999908447266 -448.62399291992176 L 125.58300018310547 -448.8649902343749 L 125.58499908447266 -448.865997314453 L 126.96600341796875 -449.71798706054676 L 127.10099792480469 -449.8020019531249 L 127.15599822998047 -449.85299682617176 L 127.86215209960938 -450.55999755859364 L 127.98699951171875 -450.68499755859364 L 128.02099609375 -450.72698974609364 L 128.0489959716797 -450.76998901367176 L 128.12100219726562 -450.88900756835926 L 128.58399963378906 -451.66000366210926 L 128.60000610351562 -451.6940002441405 L 128.88499450683594 -452.63299560546864 L 128.92572021484375 -453.36886596679676 L 128.94200134277344 -453.6629943847655 L 128.76400756835938 -455.8540039062499 L 128.57540893554688 -458.75201416015614 L 128.5540008544922 -459.08099365234364 L 128.33999633789062 -462.36700439453114 L 128.13099670410156 -465.5889892578124 L 128.01100158691406 -467.4330139160155 L 127.93299865722656 -468.62399291992176 L 127.44854736328125 -475.1359863281249 L 127.42400360107422 -475.46600341796864 L 127.37979888916016 -476.0599365234374 L 127.36699676513672 -476.23199462890614 L 127.32599639892578 -476.7770080566405 L 127.12200164794922 -479.2609863281249 M 81.25599670410156 -497.9949951171874 L 81.16400146484375 -498.04098510742176 L 80.83899688720703 -498.1199951171874 L 80.5479965209961 -498.12399291992176 L 80.27400207519531 -498.063995361328 L 80.12799835205078 -497.9949951171874 L 80.05500030517578 -497.959991455078 L 79.87799835205078 -497.81500244140614 L 79.76615142822266 -497.66400146484364 L 79.75800323486328 -497.65301513671864 L 79.6729965209961 -497.4479980468749 L 79.63700103759766 -497.1719970703124 L 79.677001953125 -496.82199096679676 L 79.7770004272461 -496.54598999023426 L 79.87200164794922 -496.4050292968749 L 79.93199920654297 -496.31600952148426 L 80.13099670410156 -496.13800048828114 L 80.33000183105469 -496.0310058593749 L 80.58899688720703 -495.959014892578 L 80.87646484375 -495.95101928710926 L 80.87699890136719 -495.95098876953114 L 81.06500244140625 -495.99200439453114 L 81.2030029296875 -496.022003173828 L 81.53399658203125 -496.1830139160155 L 81.91699981689453 -496.4890136718749 L 81.91999816894531 -496.49163818359364 L 81.95099639892578 -496.51901245117176 L 82.072998046875 -496.6619873046874 L 82.07599639892578 -496.67001342773426 L 82.12452697753906 -496.8155822753905 L 82.125 -496.81698608398426 L 82.12100219726562 -496.8330078124999 L 82.07499694824219 -497.05999755859364 L 81.91999816894531 -497.36724853515614 L 81.90599822998047 -497.39498901367176 L 81.71052551269531 -497.66400146484364 L 81.68800354003906 -497.69500732421864 L 81.4325180053711 -497.9067382812499 L 81.43099975585938 -497.907989501953 L 81.25599670410156 -497.9949951171874 M 66.96199798583984 -475.46600341796864 L 66.96353149414062 -475.1359863281249 L 66.96600341796875 -474.605987548828 L 66.98200225830078 -474.2139892578124 L 67.50599670410156 -467.27398681640614 L 67.53109741210938 -466.9440002441405 L 67.58000183105469 -466.30099487304676 L 67.63715362548828 -465.707794189453 L 67.63800048828125 -465.699005126953 L 68.4209976196289 -459.08099365234364 L 68.45991516113281 -458.75201416015614 L 69.18499755859375 -452.62200927734364 L 69.26599884033203 -452.05499267578114 L 69.2699966430664 -452.0310058593749 L 69.33699798583984 -451.75299072265614 L 69.58100128173828 -450.88900756835926 L 69.6739501953125 -450.55999755859364 L 70.7229995727539 -446.84698486328114 L 70.74299621582031 -446.792999267578 L 70.76899719238281 -446.72299194335926 L 70.7750015258789 -446.71099853515614 L 70.82499694824219 -446.62298583984364 L 71.3280029296875 -445.7460021972655 L 71.35199737548828 -445.7149963378905 L 71.8290023803711 -445.167999267578 L 71.8479995727539 -445.14999389648426 L 72.30999755859375 -444.81600952148426 L 72.78299713134766 -444.6249999999999 L 73.28700256347656 -444.5570068359374 L 73.72799682617188 -444.59957885742176 L 73.83599853515625 -444.6099853515624 L 74.74099731445312 -444.9169921874999 L 74.9209976196289 -445.0159912109374 L 75.58200073242188 -445.3819885253905 L 75.61399841308594 -445.40499877929676 L 76.31099700927734 -445.9790039062499 L 76.34100341796875 -446.0069885253905 L 76.97200012207031 -446.855987548828 L 77.61199951171875 -448.3850097656249 L 77.95771026611328 -450.55999755859364 L 78.01000213623047 -450.88900756835926 L 78.16200256347656 -451.84201049804676 L 78.16799926757812 -452.0369873046874 L 77.94874572753906 -458.75201416015614 L 77.93800354003906 -459.08099365234364 L 77.8740005493164 -461.063995361328 L 77.84200286865234 -461.67498779296864 L 77.7264175415039 -462.84799194335926 L 77.69400024414062 -463.1770019531249 L 77.3234634399414 -466.9440002441405 L 77.29100036621094 -467.27398681640614 L 77.21700286865234 -468.02999877929676 L 77.125 -468.96701049804676 L 77.01000213623047 -470.1409912109374 L 77.00399780273438 -470.19500732421864 L 76.98335266113281 -470.4129943847655 L 76.97899627685547 -470.459014892578 L 76.9774398803711 -470.4774169921874 L 76.92971801757812 -471.04000854492176 L 76.86000061035156 -471.86199951171864 L 76.6522216796875 -474.3217773437499 L 76.5999984741211 -474.94000244140614 L 76.59400177001953 -475.0069885253905 L 76.58303833007812 -475.1359863281249 L 76.55500030517578 -475.46600341796864 L 76.5260009765625 -475.80599975585926 L 75.6063461303711 -483.3280029296874 L 75.56600189208984 -483.657989501953 L 75.427001953125 -484.7919921874999 L 75.36408996582031 -485.19503784179676 L 75.36299896240234 -485.20199584960926 L 74.9209976196289 -486.46099853515614 L 74.83000183105469 -486.72100830078114 L 74.40299987792969 -487.40399169921864 L 74.3827133178711 -487.42401123046864 L 74.0469970703125 -487.7550048828124 L 74.03700256347656 -487.7650146484374 L 73.72799682617188 -487.95040893554676 L 73.66200256347656 -487.9899902343749 L 73.21199798583984 -488.12701416015614 L 72.5739974975586 -488.157989501953 L 71.39099884033203 -487.9320068359374 L 70.87376403808594 -487.76849365234364 L 70.86900329589844 -487.7669982910155 L 70.84100341796875 -487.7550048828124 L 70.82499694824219 -487.74700927734364 L 69.29900360107422 -487.074005126953 L 68.49299621582031 -486.46200561523426 L 67.88099670410156 -485.70001220703114 L 67.40899658203125 -484.69699096679676 L 67.19000244140625 -483.657989501953 L 67.12046813964844 -483.3280029296874 L 66.93800354003906 -482.46200561523426 L 66.93030548095703 -482.2799377441405 L 66.9260025024414 -482.178009033203 L 66.96199798583984 -475.46600341796864 M 84.7030029296875 -440.99398803710926 L 84.71700286865234 -441.0100097656249 L 84.7181396484375 -441.01239013671864 L 84.81600189208984 -441.2189941406249 L 84.8550033569336 -441.397003173828 L 84.8499984741211 -441.5589904785155 L 84.80599975585938 -441.7189941406249 L 84.72100067138672 -441.8710021972655 L 84.58599853515625 -442.01998901367176 L 84.33499908447266 -442.19100952148426 L 84.02999877929688 -442.31500244140614 L 83.96800231933594 -442.32647705078114 L 83.91100311279297 -442.33700561523426 L 83.72799682617188 -442.32699584960926 L 83.44400024414062 -442.240997314453 L 83.11299896240234 -442.04901123046864 L 83.06300354003906 -442.01901245117176 L 82.79299926757812 -441.7650146484374 L 82.66899871826172 -441.584014892578 L 82.66500091552734 -441.57598876953114 L 82.59700012207031 -441.35101318359364 L 82.59600067138672 -441.3439941406249 L 82.63300323486328 -441.147003173828 L 82.63600158691406 -441.13400268554676 L 82.73999786376953 -440.9540100097655 L 82.89700317382812 -440.80599975585926 L 83.11299896240234 -440.6830139160155 L 83.17400360107422 -440.64801025390614 L 83.17495727539062 -440.6477050781249 L 83.54399871826172 -440.53900146484364 L 83.90299987792969 -440.5169982910155 L 83.96800231933594 -440.52825927734364 L 84.17400360107422 -440.563995361328 L 84.36199951171875 -440.64401245117176 L 84.36699676513672 -440.64801025390614 L 84.48999786376953 -440.7390136718749 L 84.4990005493164 -440.7460021972655 L 84.51728057861328 -440.7682189941405 L 84.7030029296875 -440.99398803710926 M 79.01699829101562 -441.1619873046874 L 79.08300018310547 -441.0679931640624 L 79.08517456054688 -441.06585693359364 L 79.36000061035156 -440.7969970703124 L 79.36799621582031 -440.7919921874999 L 79.6050033569336 -440.66598510742176 L 79.61599731445312 -440.6629943847655 L 79.86799621582031 -440.66900634765614 L 79.87200164794922 -440.66928100585926 L 79.88200378417969 -440.67001342773426 L 80.26100158691406 -440.82699584960926 L 80.5250015258789 -440.9949951171874 L 80.65499877929688 -441.1419982910155 L 80.74600219726562 -441.3129882812499 L 80.78813171386719 -441.48690795898426 L 80.79299926757812 -441.5069885253905 L 80.79299926757812 -441.6719970703124 L 80.79399871826172 -441.709991455078 L 80.74400329589844 -441.928009033203 L 80.62699890136719 -442.1629943847655 L 80.4540023803711 -442.365997314453 L 80.45116424560547 -442.36801147460926 L 80.25700378417969 -442.5050048828124 L 80.04900360107422 -442.58700561523426 L 79.80400085449219 -442.6199951171874 L 79.54199981689453 -442.58700561523426 L 79.29000091552734 -442.49200439453114 L 79.110595703125 -442.36801147460926 L 79.08599853515625 -442.35101318359364 L 78.93900299072266 -442.178985595703 L 78.85399627685547 -442.00201416015614 L 78.8479995727539 -441.98800659179676 L 78.80899810791016 -441.72299194335926 L 78.80799865722656 -441.70700073242176 L 78.83399963378906 -441.51800537109364 L 78.91699981689453 -441.303009033203 L 79.01699829101562 -441.1619873046874 M 57.387001037597656 -479.5620117187499 L 57.34400177001953 -479.51461791992176 L 57.191001892089844 -479.34600830078114 L 57.14500045776367 -479.2919921874999 L 57.13600158691406 -479.27999877929676 L 55.40599822998047 -476.23199462890614 L 55.319000244140625 -476.03500366210926 L 55.137001037597656 -475.46600341796864 L 55.031776428222656 -475.1359863281249 L 54.02799987792969 -471.98800659179676 L 53.823001861572266 -470.1610107421874 L 53.82699966430664 -470.08700561523426 L 53.941001892089844 -468.9630126953124 L 53.946998596191406 -468.9339904785155 L 53.95899963378906 -468.89401245117176 L 54.36199951171875 -467.85101318359364 L 54.387001037597656 -467.79598999023426 L 54.74399948120117 -467.27398681640614 L 54.97053527832031 -466.9440002441405 L 55.07899856567383 -466.7860107421874 L 55.112998962402344 -466.7499999999999 L 55.992000579833984 -465.949005126953 L 56.03900146484375 -465.9110107421874 L 56.90599822998047 -465.428985595703 L 57.34400177001953 -465.30145263671864 L 57.665000915527344 -465.2080078124999 L 58.3380012512207 -465.17999267578114 L 58.5369987487793 -465.22198486328114 L 58.83000183105469 -465.28399658203114 L 59.25400161743164 -465.4859924316405 L 59.327999114990234 -465.53399658203114 L 59.361000061035156 -465.5629882812499 L 59.65299987792969 -465.82501220703114 L 60.0880012512207 -466.45098876953114 L 60.282684326171875 -466.9440002441405 L 60.41299819946289 -467.27398681640614 L 60.68000030517578 -467.9479980468749 L 61.319000244140625 -471.96099853515614 L 61.3120002746582 -472.33700561523426 L 61.21270751953125 -475.1359863281249 L 61.20100021362305 -475.46600341796864 L 61.13800048828125 -477.2189941406249 L 61.12900161743164 -477.29098510742176 L 60.65848159790039 -479.23199462890614 L 60.625999450683594 -479.365997314453 L 60.53099822998047 -479.5620117187499 L 60.21699905395508 -480.2080078124999 L 59.98400115966797 -480.5060119628905 L 59.75199890136719 -480.70599365234364 L 59.54600143432617 -480.8129882812499 L 59.24100112915039 -480.86898803710926 L 58.97999954223633 -480.83700561523426 L 58.624000549316406 -480.70001220703114 L 58.5369987487793 -480.6400146484374 L 58.08300018310547 -480.32598876953114 L 58.066707611083984 -480.311065673828 L 58.058998107910156 -480.303985595703 L 57.387001037597656 -479.5620117187499 M 38.9109992980957 -459.08099365234364 L 38.4476318359375 -458.75201416015614 L 37.67300033569336 -458.20199584960926 L 36.04499816894531 -456.35198974609364 L 34.76900100708008 -453.93600463867176 L 34.18741226196289 -451.62164306640614 L 34.1870002746582 -451.6199951171874 L 34.183998107910156 -450.88900756835926 L 34.176998138427734 -449.3859863281249 L 34.6150016784668 -447.59799194335926 L 34.64799880981445 -447.52301025390614 L 35.37699890136719 -446.10800170898426 L 35.41699981689453 -446.0419921874999 L 36.06700134277344 -445.21200561523426 L 37.55500030517578 -443.92098999023426 L 39.20600128173828 -443.04501342773426 L 39.86399841308594 -442.69601440429676 L 40.482784271240234 -442.36801147460926 L 41.111000061035156 -442.03500366210926 L 41.56077575683594 -441.8978271484374 L 41.56999969482422 -441.89498901367176 L 42.15299987792969 -441.7340087890624 L 47.75299835205078 -440.18499755859364 L 47.9119987487793 -440.15399169921864 L 49.152000427246094 -440.0795898437499 L 50.345001220703125 -440.00799560546864 L 54.034000396728516 -439.78500366210926 L 57.1609992980957 -440.30099487304676 L 57.52199935913086 -440.4169921874999 L 57.61199951171875 -440.4530029296874 L 58.5369987487793 -440.89300537109364 L 59.63600158691406 -441.4169921874999 L 59.749000549316406 -441.47799682617176 L 60.836875915527344 -442.36801147460926 L 60.974822998046875 -442.4808654785155 L 60.974998474121094 -442.480987548828 L 61.138999938964844 -442.69601440429676 L 61.808998107910156 -443.574005126953 L 62.358001708984375 -444.84698486328114 L 62.58700180053711 -446.29098510742176 L 62.4739990234375 -447.84600830078114 L 61.768001556396484 -450.0989990234374 L 61.35300064086914 -450.88900756835926 L 61.00699996948242 -451.5469970703124 L 58.93299865722656 -454.2399902343749 L 55.125999450683594 -457.3710021972655 L 55.08000183105469 -457.39898681640614 L 54.89500045776367 -457.49798583984364 L 52.2523307800293 -458.75201416015614 L 51.558998107910156 -459.08099365234364 L 50.572933197021484 -459.54904174804676 L 50.513999938964844 -459.57699584960926 L 50.345001220703125 -459.64401245117176 L 50.32099914550781 -459.65399169921864 L 50.30799865722656 -459.657989501953 L 49.152000427246094 -459.89486694335926 L 45.73500061035156 -460.595001220703 L 43.67900085449219 -460.6610107421874 L 42.15299987792969 -460.44100952148426 L 41.55500030517578 -460.3540039062499 L 39.59161376953125 -459.564239501953 L 39.590999603271484 -459.563995361328 L 38.9109992980957 -459.08099365234364 M 50.345001220703125 -433.5580139160155 L 49.152000427246094 -433.90472412109364 L 48.21858215332031 -434.17599487304676 L 47.09000015258789 -434.50399780273426 L 46.981998443603516 -434.53500366210926 L 46.797000885009766 -434.574005126953 L 45.27199935913086 -434.7969970703124 L 42.15299987792969 -434.803009033203 L 40.61800003051758 -434.80599975585926 L 40.6150016784668 -434.80599975585926 L 40.61476135253906 -434.80596923828114 L 40.52732467651367 -434.79107666015614 L 40.520999908447266 -434.79000854492176 L 39.35200119018555 -434.50399780273426 L 38.00912857055664 -434.17599487304676 L 37.61199951171875 -434.0790100097655 L 37.51900100708008 -434.05599975585926 L 37.44599914550781 -434.0310058593749 L 37.43000030517578 -434.02499389648426 L 37.34600067138672 -433.98699951171864 L 35.13800048828125 -432.83099365234364 L 35.058998107910156 -432.78500366210926 L 35.03799819946289 -432.7709960937499 L 33.96099853515625 -431.8129882812499 L 33.584999084472656 -431.4790039062499 L 33.58420181274414 -431.47784423828114 L 32.768001556396484 -430.28753662109364 L 32.57699966430664 -430.00900268554676 L 32.03499984741211 -428.54501342773426 L 31.844999313354492 -426.92401123046864 L 31.920000076293945 -426.3120117187499 L 31.96088981628418 -425.9840087890624 L 31.965999603271484 -425.9429931640624 L 32.323001861572266 -425.0150146484374 L 32.768001556396484 -424.35653686523426 L 32.9379997253418 -424.105010986328 L 33.96099853515625 -423.15499877929676 L 34.15800094604492 -422.97299194335926 L 36.52799987792969 -421.64801025390614 L 36.58100128173828 -421.62701416015614 L 36.707000732421875 -421.58700561523426 L 40.5989990234375 -420.4630126953124 L 40.729000091552734 -420.4320068359374 L 40.77299880981445 -420.4230041503905 L 40.959999084472656 -420.40902709960926 L 41.24669647216797 -420.3876037597655 L 41.268001556396484 -420.3859863281249 L 42.15299987792969 -420.334014892578 L 47.66600036621094 -420.00799560546864 L 47.75 -420.0100097656249 L 49.152000427246094 -420.19259643554676 L 50.345001220703125 -420.34799194335926 L 53.30099868774414 -420.730987548828 L 53.44599914550781 -420.76998901367176 L 56.56399917602539 -421.8070068359374 L 56.70100021362305 -421.86300659179676 L 57.34400177001953 -422.27276611328114 L 58.09600067138672 -422.75201416015614 L 58.5369987487793 -423.20098876953114 L 58.92399978637695 -423.59600830078114 L 59.29100036621094 -424.16900634765614 L 59.56800079345703 -424.8850097656249 L 59.59299850463867 -424.95001220703114 L 59.597999572753906 -424.97601318359364 L 59.69499969482422 -425.76300048828114 L 59.69900131225586 -425.8080139160155 L 59.67804718017578 -425.9840087890624 L 59.638999938964844 -426.3120117187499 L 59.595001220703125 -426.6879882812499 L 59.26100158691406 -427.6359863281249 L 58.391998291015625 -428.9960021972655 L 56.592525482177734 -430.71051025390614 L 56.59199905395508 -430.71099853515614 L 54.05400085449219 -432.1719970703124 L 53.02399826049805 -432.7650146484374 L 52.69447326660156 -432.87518310546864 L 52.69200134277344 -432.876007080078 L 51.233001708984375 -433.29998779296864 L 50.345001220703125 -433.5580139160155 M -11.095000267028809 -425.99200439453114 L -11.10428237915039 -425.9840087890624 L -12.37600040435791 -424.88800048828114 L -12.505000114440918 -424.76400756835926 L -13.131999969482422 -423.8850097656249 L -13.340999603271484 -423.3749999999999 L -13.402000427246094 -422.95700073242176 L -13.366000175476074 -422.61300659179676 L -13.236000061035156 -422.25299072265614 L -13.232999801635742 -422.24798583984364 L -13.211999893188477 -422.21600341796864 L -13.067999839782715 -421.9999999999999 L -13.053000450134277 -421.9790039062499 L -12.70199966430664 -421.67098999023426 L -11.848999977111816 -421.21798706054676 L -9.286999702453613 -420.5169982910155 L -8.925999641418457 -420.4750061035155 L -8.192000389099121 -420.42694091796864 L -7.382999897003174 -420.37399291992176 L -7.039000034332275 -420.35101318359364 L -6.999000072479248 -420.3489990234374 L -1.7649999856948853 -420.0050048828124 L -1.3559999465942383 -419.99700927734364 L 0 -420.10870361328114 L 1.1929999589920044 -420.20700073242176 L 4.76200008392334 -420.49899291992176 L 5.322999954223633 -420.62200927734364 L 12.218000411987305 -422.3290100097655 L 12.39799976348877 -422.3909912109374 L 12.729999542236328 -422.54400634765614 L 16.384000778198242 -424.39840698242176 L 17.19499969482422 -424.80999755859364 L 17.343000411987305 -424.9010009765624 L 17.57699966430664 -425.10101318359364 L 18.607288360595703 -425.9840087890624 L 18.989999771118164 -426.3120117187499 L 20.96299934387207 -428.00299072265614 L 23.757999420166016 -431.834991455078 L 23.851999282836914 -432.01998901367176 L 24.778976440429688 -434.17599487304676 L 24.920000076293945 -434.50399780273426 L 25.395999908447266 -435.61300659179676 L 25.467065811157227 -435.8114013671874 L 25.468000411987305 -435.813995361328 L 25.768999099731445 -437.62298583984364 L 25.84600067138672 -438.084991455078 L 25.768999099731445 -439.4429931640624 L 25.760000228881836 -439.60101318359364 L 25.44700050354004 -440.678985595703 L 25.006000518798828 -441.459014892578 L 24.982999801635742 -441.48800659179676 L 24.523000717163086 -441.9849853515624 L 24.496999740600586 -442.0100097656249 L 23.959619522094727 -442.36801147460926 L 23.790512084960938 -442.48065185546864 L 23.790000915527344 -442.480987548828 L 23.18600082397461 -442.69601440429676 L 22.952999114990234 -442.77899169921864 L 21.819000244140625 -442.90301513671864 L 21.72918128967285 -442.8966369628905 L 21.70599937438965 -442.89498901367176 L 20.32200050354004 -442.69601440429676 L 19.277000427246094 -442.5469970703124 L 19.128999710083008 -442.51800537109364 L 18.882999420166016 -442.449005126953 L 18.652027130126953 -442.36801147460926 L 17.57699966430664 -441.990997314453 L 16.384000778198242 -441.5725097656249 L 11.699000358581543 -439.928985595703 L 11.17199993133545 -439.72698974609364 L 9.965999603271484 -439.1940002441405 L 9.42199993133545 -438.93499755859364 L 6.453000068664551 -437.5169982910155 L 4.1020002365112305 -436.28500366210926 L 3.6314761638641357 -436.0192871093749 L 3.5920000076293945 -435.99700927734364 L 1.1929999589920044 -434.6109924316405 L 1.0089999437332153 -434.50399780273426 L 0.3149999976158142 -434.10299682617176 L -1.1733197963562092e-13 -433.9125061035155 L -1.1549999713897705 -433.2139892578124 L -4.734000205993652 -430.92401123046864 L -7.375087261199951 -429.04940795898426 L -7.413507461547852 -429.0221252441405 L -7.432000160217285 -429.00900268554676 L -7.557000160217285 -428.90899658203114 L -9.088000297546387 -427.70199584960926 L -9.32699966430664 -427.51400756835926 L -9.333999633789062 -427.50900268554676 L -9.34052562713623 -427.50335693359364 L -9.496000289916992 -427.36898803710926 L -10.480573654174805 -426.521514892578 L -10.723999977111816 -426.3120117187499 L -11.095000267028809 -425.99200439453114 M -55.606998443603516 -420.29901123046864 L -55.597999572753906 -420.31500244140614 L -55.59400177001953 -420.33200073242176 L -55.53706359863281 -420.57073974609364 L -55.5369987487793 -420.57101440429676 L -55.5369987487793 -420.57199096679676 L -55.53685760498047 -420.5748596191405 L -55.5359992980957 -420.59201049804676 L -55.53499984741211 -420.86300659179676 L -55.643001556396484 -421.3190002441405 L -55.87099838256836 -421.803009033203 L -55.93526840209961 -421.88800048828114 L -56.150001525878906 -422.1719970703124 L -56.183998107910156 -422.21600341796864 L -56.54999923706055 -422.70001220703114 L -56.57272720336914 -422.71905517578114 L -57.34400177001953 -423.3658447265624 L -57.560001373291016 -423.5469970703124 L -58.819000244140625 -424.19198608398426 L -60.189998626708984 -424.5159912109374 L -61.930999755859375 -424.4849853515624 L -63.63100051879883 -424.042999267578 L -64.34300231933594 -423.667999267578 L -64.4209976196289 -423.62701416015614 L -64.42123413085938 -423.62680053710926 L -64.85099792480469 -423.25201416015614 L -65.01300048828125 -423.01901245117176 L -65.09400177001953 -422.8190002441405 L -65.12100219726562 -422.63800048828114 L -65.10299682617188 -422.45001220703114 L -65.03800201416016 -422.25799560546864 L -65.01100158691406 -422.21600341796864 L -64.85399627685547 -421.9630126953124 L -64.8385009765625 -421.9476623535155 L -64.7781753540039 -421.88800048828114 L -64.39556121826172 -421.509552001953 L -64.39399719238281 -421.50799560546864 L -64.34300231933594 -421.47698974609364 L -63.13802719116211 -420.73092651367176 L -63.12200164794922 -420.72100830078114 L -60.24700164794922 -419.709991455078 L -59.944000244140625 -419.60299682617176 L -59.42599868774414 -419.49700927734364 L -59.3650016784668 -419.4890136718749 L -57.68299865722656 -419.35101318359364 L -57.612998962402344 -419.34799194335926 L -57.34400177001953 -419.38681030273426 L -56.691001892089844 -419.480987548828 L -56.16600036621094 -419.69198608398426 L -56.150001525878906 -419.7030029296874 L -55.88999938964844 -419.8900146484374 L -55.741214752197266 -420.06039428710926 L -55.71099853515625 -420.095001220703 L -55.606998443603516 -420.29901123046864 M 143.7209930419922 -508.24700927734364 L 143.27099609375 -508.51800537109364 L 142.7729949951172 -508.66900634765614 L 142.25100708007812 -508.6929931640624 L 141.82000732421875 -508.6109924316405 L 141.34100341796875 -508.3959960937499 L 141.13800048828125 -508.2359924316405 L 140.92300415039062 -508.06600952148426 L 140.8280029296875 -507.96600341796864 L 140.78359985351562 -507.90399169921864 L 140.46200561523438 -507.4549865722655 L 140.45599365234375 -507.44100952148426 L 140.2449951171875 -506.928985595703 L 140.16299438476562 -506.376007080078 L 140.16299438476562 -506.36898803710926 L 140.21800231933594 -505.8389892578124 L 140.3976287841797 -505.33700561523426 L 140.3979949951172 -505.33599853515614 L 140.45599365234375 -505.24899291992176 L 140.70399475097656 -504.8749999999999 L 141.11399841308594 -504.5060119628905 L 141.5970001220703 -504.2569885253905 L 142.08700561523438 -504.14801025390614 L 142.61500549316406 -504.16400146484364 L 143.15899658203125 -504.32101440429676 L 143.36000061035156 -504.42388916015614 L 143.53599548339844 -504.51400756835926 L 144.06199645996094 -504.9169921874999 L 144.35899353027344 -505.2860107421874 L 144.5447235107422 -505.68438720703114 L 144.5449981689453 -505.68499755859364 L 144.552001953125 -505.72299194335926 L 144.6280059814453 -506.126007080078 L 144.60699462890625 -506.62399291992176 L 144.552001953125 -506.86801147460926 L 144.50599670410156 -507.07101440429676 L 144.27699279785156 -507.605987548828 L 144.04989624023438 -507.90399169921864 L 143.9449005126953 -508.0417480468749 L 143.93099975585938 -508.05999755859364 L 143.73300170898438 -508.2359924316405 L 143.7209930419922 -508.24700927734364 M 133.4010009765625 -496.51400756835926 L 133.14999389648438 -496.4479980468749 L 132.86599731445312 -496.29998779296864 L 132.66404724121094 -496.1235351562499 L 132.66000366210938 -496.1199951171874 L 132.53900146484375 -495.94699096679676 L 132.52200317382812 -495.9230041503905 L 132.45700073242188 -495.75399780273426 L 132.43995666503906 -495.615997314453 L 132.43600463867188 -495.584014892578 L 132.4669952392578 -495.31600952148426 L 132.56100463867188 -495.06698608398426 L 132.70899963378906 -494.85198974609364 L 132.9040069580078 -494.67999267578114 L 133.11199951171875 -494.56698608398426 L 133.1199951171875 -494.5648193359374 L 133.3719940185547 -494.4960021972655 L 133.60400390625 -494.490997314453 L 133.80599975585938 -494.53399658203114 L 134.02200317382812 -494.636993408203 L 134.1909942626953 -494.77899169921864 L 134.2036590576172 -494.7897033691405 L 134.20399475097656 -494.79000854492176 L 134.31199645996094 -494.94500732421864 L 134.3419952392578 -494.98800659179676 L 134.35000610351562 -494.9999999999999 L 134.41700744628906 -495.19000244140614 L 134.44900512695312 -495.43099975585926 L 134.43084716796875 -495.615997314453 L 134.41799926757812 -495.74700927734364 L 134.3459930419922 -495.94699096679676 L 134.30999755859375 -496.04598999023426 L 134.17799377441406 -496.24301147460926 L 134.01199340820312 -496.3919982910155 L 133.822998046875 -496.4840087890624 L 133.64199829101562 -496.5209960937499 L 133.4010009765625 -496.51400756835926 M 133.5713348388672 -468.99200439453114 L 133.70199584960938 -469.0690002441405 L 133.7987060546875 -469.158721923828 L 133.7989959716797 -469.15899658203114 L 133.906005859375 -469.32199096679676 L 133.9290008544922 -469.35699462890614 L 134.0030059814453 -469.574005126953 L 134.01699829101562 -469.8070068359374 L 133.96800231933594 -470.0419921874999 L 133.86599731445312 -470.25299072265614 L 133.68800354003906 -470.470001220703 L 133.4530029296875 -470.647003173828 L 133.19400024414062 -470.7600097656249 L 133.1199951171875 -470.77264404296864 L 132.8780059814453 -470.813995361328 L 132.55299377441406 -470.78500366210926 L 132.26400756835938 -470.6730041503905 L 132.20799255371094 -470.6510009765624 L 132.04100036621094 -470.52301025390614 L 131.91099548339844 -470.3590087890624 L 131.82699584960938 -470.17098999023426 L 131.78799438476562 -469.9639892578124 L 131.79800415039062 -469.7340087890624 L 131.8719940185547 -469.4790039062499 L 132.00900268554688 -469.24398803710926 L 132.17100524902344 -469.074005126953 L 132.26400756835938 -469.01400756835926 L 132.29849243164062 -468.99200439453114 L 132.40199279785156 -468.92599487304676 L 132.66700744628906 -468.84100341796864 L 132.89100646972656 -468.82101440429676 L 133.2030029296875 -468.85699462890614 L 133.53399658203125 -468.970001220703 L 133.5713348388672 -468.99200439453114 M 138.62600708007812 -445.9479980468749 L 138.48800659179688 -446.16900634765614 L 138.3459930419922 -446.31100463867176 L 138.13400268554688 -446.42498779296864 L 137.9154510498047 -446.4639892578124 L 137.83700561523438 -446.47799682617176 L 137.6472930908203 -446.4639892578124 L 137.5659942626953 -446.4580078124999 L 137.3000030517578 -446.3699951171874 L 137.21600341796875 -446.31710815429676 L 137.06500244140625 -446.22198486328114 L 136.86399841308594 -446.0150146484374 L 136.72300720214844 -445.7669982910155 L 136.66400146484375 -445.5580139160155 L 136.65199279785156 -445.3330078124999 L 136.6999969482422 -445.09100341796864 L 136.76499938964844 -444.94198608398426 L 136.76556396484375 -444.940948486328 L 136.77200317382812 -444.928985595703 L 136.93800354003906 -444.7449951171874 L 136.9600067138672 -444.720001220703 L 136.97000122070312 -444.709991455078 L 137.17599487304688 -444.59799194335926 L 137.21600341796875 -444.5873107910155 L 137.49000549316406 -444.51400756835926 L 137.87399291992188 -444.5060119628905 L 138.17999267578125 -444.5729980468749 L 138.39300537109375 -444.6730041503905 L 138.4029998779297 -444.68099975585926 L 138.4770050048828 -444.7449951171874 L 138.57699584960938 -444.83099365234364 L 138.57786560058594 -444.83224487304676 L 138.58399963378906 -444.84100341796864 L 138.72300720214844 -445.126007080078 L 138.7259979248047 -445.136993408203 L 138.7550048828125 -445.3909912109374 L 138.74932861328125 -445.44000244140614 L 138.7239990234375 -445.65899658203114 L 138.62600708007812 -445.9479980468749 M 134.60000610351562 -445.00799560546864 L 134.4669952392578 -445.20199584960926 L 134.2729949951172 -445.37701416015614 L 134.08700561523438 -445.4750061035155 L 133.88900756835938 -445.52398681640614 L 133.677001953125 -445.5209960937499 L 133.3730010986328 -445.41900634765614 L 133.1199951171875 -445.25033569335926 L 133.10000610351562 -445.23699951171864 L 132.95199584960938 -445.08200073242176 L 132.86399841308594 -444.92999267578114 L 132.81588745117188 -444.7611389160155 L 132.81500244140625 -444.75799560546864 L 132.81500244140625 -444.7449951171874 L 132.80499267578125 -444.563995361328 L 132.83297729492188 -444.41598510742176 L 132.86700439453125 -444.2359924316405 L 132.8699951171875 -444.22698974609364 L 132.99400329589844 -443.94601440429676 L 132.99899291992188 -443.93600463867176 L 133.11399841308594 -443.80599975585926 L 133.28199768066406 -443.69100952148426 L 133.47900390625 -443.6149902343749 L 133.73199462890625 -443.58099365234364 L 133.99000549316406 -443.6099853515624 L 134.20599365234375 -443.69000244140614 L 134.41299438476562 -443.834014892578 L 134.58700561523438 -444.04501342773426 L 134.68299865722656 -444.2569885253905 L 134.70741271972656 -444.41598510742176 L 134.7220001220703 -444.5109863281249 L 134.69400024414062 -444.7449951171874 L 134.69000244140625 -444.77899169921864 L 134.6898956298828 -444.77923583984364 L 134.60000610351562 -445.00799560546864 M 148.43699645996094 -432.2130126953124 L 148.24899291992188 -432.72799682617176 L 148.02200317382812 -433.07699584960926 L 147.8419952392578 -433.2609863281249 L 147.45599365234375 -433.5230712890624 L 147.35299682617188 -433.59298706054676 L 146.802001953125 -433.79598999023426 L 146.25599670410156 -433.85198974609364 L 145.7220001220703 -433.77499389648426 L 145.22799682617188 -433.5729980468749 L 144.79800415039062 -433.25299072265614 L 144.552001953125 -432.949005126953 L 144.4770050048828 -432.855987548828 L 144.25799560546875 -432.37298583984364 L 144.16099548339844 -431.84298706054676 L 144.15699768066406 -431.6879882812499 L 144.2239990234375 -431.084991455078 L 144.43380737304688 -430.52352905273426 L 144.4340057373047 -430.52301025390614 L 144.51300048828125 -430.407989501953 L 144.70700073242188 -430.1249999999999 L 144.75665283203125 -430.0799865722655 L 145.09100341796875 -429.7770080566405 L 145.54800415039062 -429.53399658203114 L 145.593994140625 -429.5169982910155 L 146.10400390625 -429.4020080566405 L 146.64100646972656 -429.41598510742176 L 147.16799926757812 -429.56600952148426 L 147.45599365234375 -429.73211669921864 L 147.67599487304688 -429.8590087890624 L 148.05029296875 -430.20208740234364 L 148.05999755859375 -430.21099853515614 L 148.197998046875 -430.407989501953 L 148.26400756835938 -430.4999999999999 L 148.43299865722656 -430.9370117187499 L 148.51300048828125 -431.54000854492176 L 148.43699645996094 -432.2130126953124 M 135.5260009765625 -434.50399780273426 L 134.3769989013672 -435.0050048828124 L 134.30609130859375 -435.023712158203 L 134.30499267578125 -435.02398681640614 L 132.26400756835938 -435.38900756835926 L 131.8000030517578 -435.47198486328114 L 131.66099548339844 -435.49398803710926 L 131.61900329589844 -435.49798583984364 L 131.35699462890625 -435.5100097656249 L 131.07200622558594 -435.50765991210926 L 122.28600311279297 -435.43600463867176 L 121.63200378417969 -435.41598510742176 L 115.87999725341797 -435.04098510742176 L 114.68800354003906 -434.9632568359374 L 114.68399810791016 -434.9630126953124 L 114.50599670410156 -434.949005126953 L 111.84700012207031 -434.73800659179676 L 108.88999938964844 -434.50399780273426 L 106.49600219726562 -434.31439208984364 L 104.7485580444336 -434.17599487304676 L 99.49600219726562 -433.7600097656249 L 98.30400085449219 -433.66549682617176 L 96.49400329589844 -433.522003173828 L 96.22459411621094 -433.48568725585926 L 96.13800048828125 -433.4739990234374 L 91.30500030517578 -432.63400268554676 L 89.93599700927734 -432.397003173828 L 89.66699981689453 -432.33599853515614 L 89.53800201416016 -432.2969970703124 L 86.27799987792969 -431.02499389648426 L 86.0780029296875 -430.93600463867176 L 83.98300170898438 -429.45700073242176 L 83.95925903320312 -429.4344482421874 L 83.94300079345703 -429.41900634765614 L 83.90299987792969 -429.37399291992176 L 83.11299896240234 -428.480010986328 L 82.76100158691406 -428.0830078124999 L 82.7249984741211 -428.03500366210926 L 81.99600219726562 -426.6359863281249 L 81.91999816894531 -426.316192626953 L 81.91899871826172 -426.3120117187499 L 81.84162139892578 -425.9840087890624 L 81.73899841308594 -425.54901123046864 L 81.7490005493164 -424.5310058593749 L 81.91999816894531 -423.87741088867176 L 81.9739990234375 -423.67098999023426 L 82.43299865722656 -422.8280029296874 L 83.11299896240234 -422.0939941406249 L 83.16600036621094 -422.0369873046874 L 84.18199920654297 -421.3540039062499 L 85.99700164794922 -420.67599487304676 L 87.77106475830078 -420.3828124999999 L 87.78199768066406 -420.3810119628905 L 91.30500030517578 -420.115997314453 L 95.51699829101562 -419.7980041503905 L 98.30400085449219 -419.85543823242176 L 99.49600219726562 -419.8800048828124 L 102.50900268554688 -419.94100952148426 L 104.04299926757812 -420.0260009765624 L 114.68800354003906 -420.64202880859364 L 115.87999725341797 -420.71099853515614 L 120.33899688720703 -420.9689941406249 L 120.44999694824219 -420.9790039062499 L 120.77304077148438 -421.03594970703114 L 121.05699920654297 -421.08599853515614 L 124.0719985961914 -421.62200927734364 L 127.16799926757812 -422.1719970703124 L 127.1780014038086 -422.17498779296864 L 131.07200622558594 -423.9201660156249 L 132.1269989013672 -424.39300537109364 L 132.26400756835938 -424.47799682617176 L 133.9149932861328 -425.5050048828124 L 134.61306762695312 -425.9840087890624 L 134.7689971923828 -426.09100341796864 L 134.95516967773438 -426.23480224609364 L 134.95799255371094 -426.23699951171864 L 135.04600524902344 -426.3120117187499 L 135.97799682617188 -427.1040039062499 L 136.80599975585938 -428.15499877929676 L 137.1929931640625 -429.0360107421874 L 137.37100219726562 -430.05099487304676 L 137.35899353027344 -430.407989501953 L 137.3280029296875 -431.3190002441405 L 137.3179931640625 -431.3810119628905 L 137.0540008544922 -432.6090087890624 L 137.03700256347656 -432.67098999023426 L 136.68099975585938 -433.4169921874999 L 136.22900390625 -433.97799682617176 L 135.97097778320312 -434.17599487304676 L 135.56700134277344 -434.4859924316405 L 135.5260009765625 -434.50399780273426 M 130.64100646972656 -495.94699096679676 L 130.64100646972656 -496.13299560546864 L 130.5850067138672 -496.38800048828114 L 130.48800659179688 -496.584991455078 L 130.35000610351562 -496.7460021972655 L 130.2010040283203 -496.85198974609364 L 130.01100158691406 -496.92599487304676 L 129.63499450683594 -496.97698974609364 L 129.33299255371094 -496.94699096679676 L 129.0780029296875 -496.855987548828 L 129.0240020751953 -496.81979370117176 L 128.89599609375 -496.7340087890624 L 128.7570037841797 -496.5830078124999 L 128.66099548339844 -496.40301513671864 L 128.61500549316406 -496.21099853515614 L 128.61500549316406 -496.03729248046864 L 128.61500549316406 -496.0310058593749 L 128.63600158691406 -495.94699096679676 L 128.66600036621094 -495.8179931640624 L 128.76611328125 -495.615997314453 L 128.7790069580078 -495.5899963378905 L 128.9239959716797 -495.40301513671864 L 129.19900512695312 -495.1319885253905 L 129.20899963378906 -495.126007080078 L 129.44500732421875 -495.001007080078 L 129.45700073242188 -494.99700927734364 L 129.70899963378906 -495.00399780273426 L 129.7220001220703 -495.0050048828124 L 130.0070037841797 -495.115997314453 L 130.031005859375 -495.126007080078 L 130.33999633789062 -495.3190002441405 L 130.3560028076172 -495.3299865722655 L 130.48800659179688 -495.4859924316405 L 130.55332946777344 -495.615997314453 L 130.58900451660156 -495.6870117187499 L 130.63900756835938 -495.9110107421874 L 130.64100646972656 -495.94699096679676 M 82.11000061035156 -493.1730041503905 L 82.0530014038086 -493.43499755859364 L 81.94100189208984 -493.6520080566405 L 81.91999816894531 -493.67535400390614 L 81.78987121582031 -493.82003784179676 L 81.78900146484375 -493.82101440429676 L 81.6729965209961 -493.89898681640614 L 81.5989990234375 -493.949005126953 L 81.375 -494.02899169921864 L 81.13400268554688 -494.05599975585926 L 80.8280029296875 -494.0209960937499 L 80.58999633789062 -493.93499755859364 L 80.53500366210938 -493.89898681640614 L 80.4010009765625 -493.80999755859364 L 80.25299835205078 -493.6459960937499 L 80.2124252319336 -493.5679931640624 L 80.16300201416016 -493.47299194335926 L 80.15599822998047 -493.459014892578 L 80.11000061035156 -493.18600463867176 L 80.10800170898438 -493.17098999023426 L 80.13600158691406 -492.96701049804676 L 80.22000122070312 -492.7609863281249 L 80.36399841308594 -492.5629882812499 L 80.5739974975586 -492.3810119628905 L 80.84500122070312 -492.2390136718749 L 81.06500244140625 -492.1879882812499 L 81.11000061035156 -492.178009033203 L 81.36699676513672 -492.18499755859364 L 81.59500122070312 -492.24899291992176 L 81.7750015258789 -492.35101318359364 L 81.90699768066406 -492.47299194335926 L 81.91999816894531 -492.49240112304676 L 82.02300262451172 -492.6459960937499 L 82.10099792480469 -492.89898681640614 L 82.11000061035156 -493.1730041503905 M 65.55400085449219 -503.855987548828 L 65.53600311279297 -503.82220458984364 L 65.3239974975586 -503.42401123046864 L 65.1969985961914 -502.92098999023426 L 65.19599914550781 -502.38299560546864 L 65.33499908447266 -501.824005126953 L 65.53600311279297 -501.44696044921864 L 65.625 -501.27999877929676 L 66.08000183105469 -500.77499389648426 L 66.16000366210938 -500.70599365234364 L 66.69000244140625 -500.3649902343749 L 66.72899627685547 -500.35198974609364 L 67.05799865722656 -500.2449951171874 L 67.44100189208984 -500.21701049804676 L 67.8550033569336 -500.28500366210926 L 68.51399993896484 -500.54901123046864 L 68.9800033569336 -500.8649902343749 L 69.3270034790039 -501.25799560546864 L 69.53299713134766 -501.6520080566405 L 69.63200378417969 -502.03350830078114 L 69.65599822998047 -502.126007080078 L 69.66699981689453 -502.64498901367176 L 69.63200378417969 -502.8043212890624 L 69.54199981689453 -503.2139892578124 L 69.27799987792969 -503.74301147460926 L 69.22251892089844 -503.8080139160155 L 68.94000244140625 -504.13900756835926 L 68.93099975585938 -504.14999389648426 L 68.92996978759766 -504.1507568359374 L 68.51200103759766 -504.4549865722655 L 67.98500061035156 -504.66598510742176 L 67.38099670410156 -504.7399902343749 L 66.78404235839844 -504.6730041503905 L 66.78399658203125 -504.6730041503905 L 66.72899627685547 -504.65301513671864 L 66.2969970703125 -504.4960021972655 L 65.87999725341797 -504.21798706054676 L 65.55400085449219 -503.855987548828 M 77.93299865722656 -492.9169921874999 L 77.8239974975586 -492.98764038085926 L 77.75399780273438 -493.032989501953 L 77.55599975585938 -493.10198974609364 L 77.35800170898438 -493.11801147460926 L 77.13400268554688 -493.084014892578 L 76.91200256347656 -492.9949951171874 L 76.68000030517578 -492.8380126953124 L 76.45999908447266 -492.59600830078114 L 76.32499694824219 -492.35101318359364 L 76.26300048828125 -492.1319885253905 L 76.25299835205078 -491.92401123046864 L 76.26699829101562 -491.85101318359364 L 76.29000091552734 -491.73300170898426 L 76.38099670410156 -491.5379943847655 L 76.39737701416016 -491.51998901367176 L 76.58300018310547 -491.31600952148426 L 76.78399658203125 -491.2040100097655 L 77.06700134277344 -491.126007080078 L 77.35700225830078 -491.11300659179676 L 77.63600158691406 -491.16400146484364 L 77.84100341796875 -491.25299072265614 L 77.9990005493164 -491.37298583984364 L 78.11100006103516 -491.5169982910155 L 78.11234283447266 -491.51998901367176 L 78.20636749267578 -491.72958374023426 L 78.20700073242188 -491.730987548828 L 78.22799682617188 -491.85101318359364 L 78.25900268554688 -492.02499389648426 L 78.23799896240234 -492.3540039062499 L 78.15699768066406 -492.61199951171864 L 78.05000305175781 -492.79400634765614 L 77.93299865722656 -492.9169921874999 M 81.47200012207031 -467.7040100097655 L 81.25599670410156 -467.82199096679676 L 81 -467.89300537109364 L 80.6969985961914 -467.90399169921864 L 80.39700317382812 -467.8389892578124 L 80.15399932861328 -467.720001220703 L 79.94599914550781 -467.54598999023426 L 79.78399658203125 -467.3179931640624 L 79.76699829101562 -467.27398681640614 L 79.68299865722656 -467.04901123046864 L 79.66983032226562 -466.9440002441405 L 79.6449966430664 -466.7460021972655 L 79.66000366210938 -466.6040039062499 L 79.66400146484375 -466.584991455078 L 79.71199798583984 -466.45001220703114 L 79.83300018310547 -466.26400756835926 L 79.87200164794922 -466.22564697265614 L 80.01399993896484 -466.08599853515614 L 80.36299896240234 -465.8699951171874 L 80.64900207519531 -465.76400756835926 L 81.00299835205078 -465.70599365234364 L 81.06500244140625 -465.709991455078 L 81.26399993896484 -465.72299194335926 L 81.43158721923828 -465.774200439453 L 81.44400024414062 -465.77801513671864 L 81.59700012207031 -465.876007080078 L 81.61000061035156 -465.88400268554676 L 81.71199798583984 -466.00399780273426 L 81.71700286865234 -466.0109863281249 L 81.82499694824219 -466.25201416015614 L 81.91000366210938 -466.6770019531249 L 81.91300201416016 -466.77499389648426 L 81.89427947998047 -466.9440002441405 L 81.87944030761719 -467.0780334472655 L 81.87799835205078 -467.09100341796864 L 81.81099700927734 -467.27398681640614 L 81.78900146484375 -467.33700561523426 L 81.6449966430664 -467.5480041503905 L 81.47200012207031 -467.7040100097655 M 109.56999969482422 -443.2810058593749 L 109.41200256347656 -443.4580078124999 L 109.23699951171875 -443.5780029296874 L 108.9729995727539 -443.6820068359374 L 108.6989974975586 -443.71798706054676 L 108.54399871826172 -443.6954650878905 L 108.36900329589844 -443.67001342773426 L 108.11499786376953 -443.5589904785155 L 107.88300323486328 -443.38400268554676 L 107.69999694824219 -443.1619873046874 L 107.68800354003906 -443.136993408203 L 107.58899688720703 -442.9330139160155 L 107.5880355834961 -442.928741455078 L 107.54051208496094 -442.719268798828 L 107.54000091552734 -442.71701049804676 L 107.54100036621094 -442.69601440429676 L 107.54499816894531 -442.50399780273426 L 107.58209228515625 -442.36801147460926 L 107.5958480834961 -442.31756591796864 L 107.59600067138672 -442.31698608398426 L 107.68800354003906 -442.15301513671864 L 107.7020034790039 -442.12799072265614 L 107.88300323486328 -441.9370117187499 L 108.25599670410156 -441.67401123046864 L 108.46099853515625 -441.58599853515614 L 108.63500213623047 -441.5570068359374 L 108.80500030517578 -441.5729980468749 L 108.97200012207031 -441.6310119628905 L 109.2770004272461 -441.8229980468749 L 109.4990005493164 -442.04501342773426 L 109.64399719238281 -442.29000854492176 L 109.666748046875 -442.36801147460926 L 109.72100067138672 -442.553985595703 L 109.72699737548828 -442.69601440429676 L 109.73100280761719 -442.8190002441405 L 109.6760025024414 -443.074005126953 L 109.56999969482422 -443.2810058593749 M 84.05799865722656 -438.30999755859364 L 84.00678253173828 -438.272003173828 L 83.96800231933594 -438.24322509765614 L 83.84100341796875 -438.14898681640614 L 83.70800018310547 -437.99200439453114 L 83.6240005493164 -437.82199096679676 L 83.58499908447266 -437.6359863281249 L 83.58699798583984 -437.57598876953114 L 83.59200286865234 -437.4370117187499 L 83.68299865722656 -437.12799072265614 L 83.8239974975586 -436.8919982910155 L 83.96800231933594 -436.75326538085926 L 83.98799896240234 -436.7340087890624 L 84.18900299072266 -436.61700439453114 L 84.4010009765625 -436.5520019531249 L 84.41500091552734 -436.5480041503905 L 84.66799926757812 -436.53399658203114 L 84.91699981689453 -436.584014892578 L 85.11699676513672 -436.678985595703 L 85.16100311279297 -436.7139892578124 L 85.28099822998047 -436.80999755859364 L 85.43599700927734 -437.0109863281249 L 85.5260009765625 -437.22198486328114 L 85.53031158447266 -437.24798583984364 L 85.56600189208984 -437.4630126953124 L 85.5469970703125 -437.709991455078 L 85.46700286865234 -437.9639892578124 L 85.38300323486328 -438.11700439453114 L 85.25311279296875 -438.272003173828 L 85.23300170898438 -438.29598999023426 L 85.16100311279297 -438.3500061035155 L 85.08000183105469 -438.41000366210926 L 85.06600189208984 -438.41900634765614 L 84.80799865722656 -438.50799560546864 L 84.79399871826172 -438.511993408203 L 84.60199737548828 -438.51300048828114 L 84.447998046875 -438.480010986328 L 84.05799865722656 -438.30999755859364 M 72.5790023803711 -429.6249999999999 L 72.11000061035156 -429.8439941406249 L 71.58599853515625 -429.94000244140614 L 71.43699645996094 -429.94500732421864 L 70.87483215332031 -429.87811279296864 L 70.8740005493164 -429.87799072265614 L 70.82499694824219 -429.8590087890624 L 70.37100219726562 -429.68499755859364 L 69.97899627685547 -429.41500854492176 L 69.63200378417969 -429.0355529785155 L 69.6259994506836 -429.02899169921864 L 69.3550033569336 -428.542999267578 L 69.19499969482422 -427.96099853515614 L 69.18399810791016 -427.3609924316405 L 69.2959976196289 -426.87799072265614 L 69.50700378417969 -426.459014892578 L 69.63200378417969 -426.315460205078 L 69.63500213623047 -426.3120117187499 L 69.83899688720703 -426.0780029296874 L 69.9769515991211 -425.9840087890624 L 70.26899719238281 -425.78500366210926 L 70.41500091552734 -425.71600341796864 L 71.00199890136719 -425.480987548828 L 71.26000213623047 -425.4320068359374 L 71.47699737548828 -425.4479980468749 L 72.2300033569336 -425.720001220703 L 72.69700622558594 -425.9840087890624 L 72.72000122070312 -425.99700927734364 L 73.0479965209961 -426.3120117187499 L 73.0999984741211 -426.36199951171864 L 73.35299682617188 -426.76300048828114 L 73.51599884033203 -427.23800659179676 L 73.56900024414062 -427.76901245117176 L 73.53207397460938 -428.032012939453 L 73.48699951171875 -428.35299682617176 L 73.26300048828125 -428.89898681640614 L 72.96499633789062 -429.303985595703 L 72.5790023803711 -429.6249999999999 z" fill="none" stroke="rgb(255,0,0)" stroke-width="0.001mm"/>
</svg>